<svg width="42" height="42" viewBox="0 0 42 42" fill="none" xmlns="http://www.w3.org/2000/svg">
<g clip-path="url(#clip0_72_23)">
<path d="M38.6146 12.9655L25.0801 0.543047C24.6355 0.187441 24.1044 0 23.5445 0C22.9846 0 22.4523 0.187441 22.0078 0.543047L8.47467 12.9284C7.414 13.7754 7.23813 15.3225 8.0901 16.3863C8.93445 17.4437 10.4834 17.6238 11.548 16.7709L23.5445 5.69797L35.5435 16.8092C36.5339 17.6067 38.1939 17.4347 38.9991 16.4223C39.8498 15.3629 39.6763 13.8134 38.6146 12.9655Z" fill="#162A41"/>
<path d="M35.8481 0.00366211H30.9267C30.2466 0.00366211 29.6963 0.553928 29.6963 1.23405V1.42813L37.0785 8.23689V1.23405C37.0785 0.553928 36.5283 0.00366211 35.8481 0.00366211Z" fill="#162A41"/>
<path d="M3.85905 19.7715H1.23429C0.554254 19.7715 0.00390625 20.3218 0.00390625 21.0019V40.7697C0.00390625 41.4497 0.554172 42.0001 1.23429 42.0001H3.85905C5.89441 42.0001 7.55013 40.3444 7.55013 38.309V23.4626C7.55013 21.4272 5.89449 19.7715 3.85905 19.7715Z" fill="#162A41"/>
<path d="M40.9913 22.6998C39.9823 21.9616 38.5798 22.1092 37.7431 23.0197L31.0992 31.2877C30.6316 31.7798 29.7457 32.0751 29.2782 32.0751H18.6232C17.9341 32.0751 17.3928 31.5339 17.3928 30.8447C17.3928 30.1556 17.9341 29.6144 18.6232 29.6144C24.1352 29.6144 22.3389 29.6144 28.4661 29.6144C29.8196 29.6144 30.9268 28.507 30.9268 27.1537C30.9268 25.8002 29.8195 24.693 28.4661 24.693C22.6879 24.693 28.1995 24.693 22.0191 24.693C21.4059 24.693 21.1001 24.3041 20.6164 23.8809C19.8782 23.2166 19.0416 22.7244 18.1803 22.3799C15.5138 21.291 12.4326 21.6205 10.0107 23.3048C10.0107 27.7848 10.0107 34.4604 10.0107 39.5393H28.4662C30.7793 39.5393 32.994 38.432 34.3721 36.5864L41.5081 26.1694C42.3201 25.0866 42.0986 23.5118 40.9913 22.6998Z" fill="#162A41"/>
<path d="M23.5425 9.04907L12.4717 19.2684V19.6022C13.2839 19.4151 14.1117 19.2885 14.9588 19.2885C16.3923 19.2885 17.7884 19.5624 19.1101 20.1019C19.3707 20.2061 19.6044 20.3536 19.8538 20.4763V18.5411C19.8538 17.8611 20.404 17.3108 21.0841 17.3108H26.0056C26.6856 17.3108 27.236 17.861 27.236 18.5411V22.2322H28.4665C30.4405 22.2322 32.1467 23.4001 32.9301 25.081L34.6182 22.9803V19.2976L23.5425 9.04907Z" fill="#162A41"/>
<path d="M22.3145 19.7715V22.0986L22.4623 22.2323H24.7752V19.7715H22.3145Z" fill="#162A41"/>
</g>
<defs>
<clipPath id="clip0_72_23">
<rect width="42" height="42" fill="white"/>
</clipPath>
</defs>
</svg>
