<svg width="22" height="30" viewBox="0 0 22 30" fill="none" xmlns="http://www.w3.org/2000/svg">
<path d="M10.9996 0C5.00871 0 0.134766 4.87394 0.134766 10.8648C0.134766 18.2996 9.85775 29.2144 10.2717 29.6754C10.6605 30.1085 11.3394 30.1078 11.7275 29.6754C12.1415 29.2144 21.8645 18.2996 21.8645 10.8648C21.8644 4.87394 16.9905 0 10.9996 0ZM10.9996 16.3312C7.98545 16.3312 5.5333 13.879 5.5333 10.8648C5.5333 7.85062 7.98551 5.39848 10.9996 5.39848C14.0137 5.39848 16.4659 7.85068 16.4659 10.8649C16.4659 13.879 14.0137 16.3312 10.9996 16.3312Z" fill="#162A41"/>
</svg>
